<svg width="92" height="92" viewBox="0 0 92 92" fill="none" xmlns="http://www.w3.org/2000/svg">
<g clip-path="url(#clip0)">
<path fill-rule="evenodd" clip-rule="evenodd" d="M89.8719 2.12807C87.0345 -0.709356 82.4354 -0.709356 79.5952 2.12807L46.0014 35.7218L12.4048 2.12807C9.56741 -0.709356 4.96549 -0.709356 2.12807 2.12807C-0.709356 4.96549 -0.709356 9.56742 2.12807 12.4048L35.7218 46.0014L2.12807 79.5952C-0.709356 82.4326 -0.709356 87.0345 2.12807 89.8719C3.54536 91.2921 5.40662 92.0007 7.26503 92.0007C9.12629 92.0007 10.9847 91.2921 12.4048 89.8719L45.9986 56.2782L79.5923 89.8719C81.0125 91.2921 82.8737 92.0007 84.7321 92.0007C86.5934 92.0007 88.4518 91.2921 89.8719 89.8719C92.7094 87.0345 92.7094 82.4326 89.8719 79.5952L56.2753 46.0014L89.8719 12.4048C92.7094 9.56742 92.7094 4.96549 89.8719 2.12807V2.12807Z" fill="black"/>
</g>
<defs>
<clipPath id="clip0">
<rect width="92" height="92" fill="white"/>
</clipPath>
</defs>
</svg>
